<svg id="_1-File_Search" data-name="1-File Search" xmlns="http://www.w3.org/2000/svg" width="48" height="48" viewBox="0 0 48 48"><defs><style>.cls-1{fill:#f6b445;}.cls-2{fill:#fed049;}.cls-3{fill:#a4b0c0;}.cls-4{fill:#f1f2f2;}.cls-5{fill:#474c54;}</style></defs><title>1-File Search</title><path class="cls-1" d="M47,13H39a4,4,0,0,1-4-4V1Z"/><path class="cls-2" d="M47,13V43a4,4,0,0,1-4,4H9c-4,0-4-4-4-4V5A4,4,0,0,1,9,1H35V9a4,4,0,0,0,4,4h8Z"/><rect class="cls-3" x="10" y="37" width="6" height="10" rx="2" ry="2"/><circle class="cls-4" cx="13" cy="19" r="12"/><path class="cls-5" d="M47.707,12.293l-12-12A1.009,1.009,0,0,0,35,0H9A5.006,5.006,0,0,0,4,5,1,1,0,0,0,6,5,3,3,0,0,1,9,2H34V9a5.006,5.006,0,0,0,5,5h2a1,1,0,0,0,0-2H39a3,3,0,0,1-3-3V3.414l10,10V43a3,3,0,0,1-3,3H21a1,1,0,0,0,0,2H43a5.006,5.006,0,0,0,5-5V13A1,1,0,0,0,47.707,12.293Z"/><path class="cls-5" d="M14,36V31.949a13,13,0,1,0-2,0V36a3,3,0,0,0-3,3v6a3,3,0,0,0,3,3h2a3,3,0,0,0,3-3V39A3,3,0,0,0,14,36ZM2,19A11,11,0,1,1,13,30,11.013,11.013,0,0,1,2,19ZM15,45a1,1,0,0,1-1,1H12a1,1,0,0,1-1-1V39a1,1,0,0,1,1-1h2a1,1,0,0,1,1,1Z"/><path class="cls-5" d="M14,13a1,1,0,0,0-1-1,7.008,7.008,0,0,0-7,7,1,1,0,0,0,2,0,5.006,5.006,0,0,1,5-5A1,1,0,0,0,14,13Z"/></svg>